<svg role="img" viewbox=" 0 0 335 34.397" xmlns="http://www.w3.org/2000/svg"><title>Autodesk primary logo</title><path d="M 0.253,33.578 29.488,15.376 H 44.66 c 0.468,0 0.896,0.37 0.896,0.897 0,0.428 -0.195,0.604 -0.428,0.74 l -14.355,8.614 c -0.935,0.565 -1.266,1.676 -1.266,2.514 l -0.019,5.437 h 18.25 V 2.026 c 0,-0.604 -0.468,-1.13 -1.169,-1.13 H 29.157 L 0,19.02 v 14.558 z m 239.72,10e-4 h 26.294 V 26.504 H 248.309 V 20.58 h 14.452 V 13.486 H 248.309 V 7.971 h 17.958 V 0.896 H 239.973 Z M 74.752,0.896 62.228,33.579 h 8.609 l 2.181,-6.12 h 13.985 l 2.142,6.12 h 8.901 L 85.367,0.896 Z m 0.74,19.606 4.577,-12.804 4.499,12.804 z M 133.766,7.971 h 10.537 v 25.608 h 8.317 V 7.971 h 10.498 V 0.896 h -29.352 z m -12.114,13.018 c 0,4.249 -2.61,5.964 -7.07,5.964 -4.324,0 -7.148,-1.793 -7.148,-5.964 V 0.779 h -8.336 v 21.165 c 0,9.432 8.414,12.375 15.464,12.375 7.012,0 15.387,-2.943 15.387,-12.375 V 0.779 h -8.336 v 20.21 z M 335,0.896 h -9.914 l -11.88,13.272 V 0.896 h -8.337 l 0.039,32.683 h 8.298 V 21.165 l 11.257,12.414 H 335 L 319.808,17.442 Z m -114.621,0 h -15.27 v 32.683 h 15.27 c 11.706,0 14.939,-4.366 14.939,-16.585 0,-11.479 -3.097,-16.098 -14.939,-16.098 z m -0.331,25.608 h -6.622 V 7.971 h 6.622 c 5.22,0 6.778,1.422 6.778,9.023 0,6.938 -1.753,9.51 -6.778,9.51 z m 71.402,-12.16 -7.596,-0.858 c -4.441,-0.487 -5.551,-1.598 -5.551,-3.099 0,-1.676 2.279,-3.176 6.739,-3.176 4.285,0 6.525,1.598 6.934,3.995 h 8.161 C 299.727,4.287 293.943,0 285.49,0 c -10.05,0 -15.094,3.995 -15.094,11.07 0,5.749 3.35,8.458 10.283,9.198 l 7.713,0.819 c 2.941,0.331 4.285,1.461 4.285,2.942 0,1.676 -1.967,3.177 -6.7,3.177 -5.473,0 -7.674,-1.384 -8.044,-4.171 h -8.005 c 0.37,7.523 5.259,11.362 15.757,11.362 9.582,0 14.938,-4.209 14.938,-10.543 0,-5.515 -3.174,-8.828 -9.173,-9.51 z M 182.497,0 c -11.881,0 -18.035,7.308 -18.035,17.15 0,9.881 6.154,17.228 18.035,17.228 11.92,0 18.075,-7.347 18.075,-17.228 C 200.591,7.308 194.417,0 182.497,0 Z m 0,27.031 c -6.155,0 -9.543,-3.762 -9.543,-9.881 0,-6.003 3.388,-9.803 9.543,-9.803 6.213,0 9.544,3.8 9.544,9.803 0.019,6.139 -3.331,9.881 -9.544,9.881 z"/></svg>