<svg xmlns="http://www.w3.org/2000/svg" viewBox="0 0 24 24"><title>Espressif logo</title><path fill="#e8362d" d="M7.905 17.84c0 .924-.755 1.679-1.678 1.679a1.683 1.683 0 0 1-1.679-1.678c0-.924.755-1.679 1.679-1.679.923 0 1.678.755 1.678 1.679m14.719-1.746C21.55 8.425 15.457 2.35 7.804 1.26c-.89.47-1.712 1.074-2.45 1.762V4.65c7.653 0 13.863 6.227 13.863 13.863h1.628a10.107 10.107 0 0 0 1.779-2.417m1.259-5.12C23.883 4.917 18.982 0 12.923 0A8.26 8.26 0 0 0 11.8.067l-.252.722c5.387 1.88 9.667 6.16 11.563 11.547l.722-.252c.034-.37.05-.739.05-1.108M13.04 24c-3.49 0-6.763-1.36-9.213-3.827A12.894 12.894 0 0 1 0 10.96c0-3.49 1.36-6.763 3.827-9.23l.688.705A11.956 11.956 0 0 0 .99 10.959c0 3.223 1.259 6.244 3.525 8.526a11.956 11.956 0 0 0 8.526 3.525c3.222 0 6.243-1.259 8.525-3.525l.705.688A12.961 12.961 0 0 1 13.041 24m-.135-4.716a7.598 7.598 0 0 0-2.97-6.797 7.546 7.546 0 0 0-3.81-1.494.666.666 0 0 1-.604-.738c.05-.403.386-.655.738-.605a8.697 8.697 0 0 1 4.18 1.544c2.584 1.796 4.161 4.901 3.826 8.241a7.858 7.858 0 0 1-.302 1.544l1.98.554a11.58 11.58 0 0 0 1.712-.638 13.44 13.44 0 0 0 .218-2.35c0-6.276-4.632-11.48-10.674-12.369-.722-.1-1.46-.117-1.997.017a4.334 4.334 0 0 0-2.165 1.326 4.22 4.22 0 0 0-1.058 2.82 4.273 4.273 0 0 0 2.971 4.078c.319.1.822.15 1.074.184h.017a4.018 4.018 0 0 1 3.323 3.944 4.03 4.03 0 0 1-.638 2.165l1.376.873a11.55 11.55 0 0 0 2.048.336 8.103 8.103 0 0 0 .755-2.635"/></svg>