<svg role="img" viewBox="0 0 322.2 126.083" xmlns="http://www.w3.org/2000/svg"><title>KiCad primary logo</title><path d="M3.351 11.926h114.391c.512 0 .925.432.925.968V122.69c0 .536-.413.968-.925.968H3.352c-.514 0-.927-.432-.927-.968V12.894c0-.536.413-.968.926-.968z" style="fill:#314cb0;stroke:#1d2d68;stroke-width:4.85;"/><path d="M31.942 58.21 48.869 36.8c3.46-4.364 5.19-7.628 5.19-9.79 0-.787-.098-1.416-.294-1.888h29.55c-2.242 1.258-5.054 3.912-8.435 7.962-.905 1.062-2.497 3.008-4.778 5.84L47.925 66.527l26.483 36.45c1.612 2.202 3.657 4.68 6.134 7.432.668.708 1.632 1.553 2.89 2.536H53.116c.236-.904.354-1.71.354-2.418 0-2.163-1.495-5.289-4.483-9.378L31.941 77.91v23.534c0 5.465 1.101 9.299 3.303 11.5H7.524c1.533-1.533 2.516-3.282 2.948-5.248.236-1.101.354-3.166.354-6.193V36.564c0-3.027-.118-5.092-.354-6.193-.432-1.966-1.415-3.716-2.949-5.25h27.721c-2.202 2.203-3.303 6.017-3.303 11.443V58.21m79.212-9.79v54.144c0 2.831.08 4.68.236 5.544.315 1.77 1.14 3.382 2.477 4.837h-25.95c1.336-1.455 2.161-3.067 2.476-4.837.157-.865.236-2.713.236-5.544V58.682c0-2.83-.079-4.66-.236-5.485-.315-1.73-1.12-3.323-2.418-4.778h23.18m-10.263-30.847c3.263 0 6.035 1.16 8.316 3.48 2.32 2.28 3.48 5.053 3.48 8.317 0 3.342-1.14 6.153-3.42 8.434-2.242 2.241-5.034 3.362-8.376 3.362-3.264 0-6.056-1.14-8.376-3.421-2.28-2.32-3.42-5.112-3.42-8.375 0-3.343 1.12-6.134 3.361-8.376 2.28-2.28 5.092-3.42 8.435-3.42" style="fill:#fff;"/><path d="M187.771 109.052c-6.253 3.539-13.252 5.308-20.998 5.308-12.308 0-22.118-4.56-29.432-13.683-6.803-8.454-10.204-18.992-10.204-31.614 0-14.156 4.168-25.401 12.504-33.737 7.707-7.707 16.83-11.56 27.367-11.56 6.882 0 13.92 2.005 21.116 6.015 1.848 1.023 3.342 1.593 4.482 1.71l-10.557 15.336c-3.46-4.404-8.08-6.606-13.86-6.606-9.045 0-14.943 5.584-17.695 16.75-.905 3.658-1.357 7.688-1.357 12.092 0 12.504 3.165 21.037 9.496 25.598 2.95 2.123 6.095 3.185 9.437 3.185 5.977 0 11.285-2.556 15.925-7.668l9.79 16.043c-.47-.118-2.476.826-6.015 2.831" style="fill:#1b2b63;"/><path d="M230.655 94.838V84.634a26.023 26.023 0 0 0-4.718-.413c-3.303 0-6.135.59-8.494 1.77-2.988 1.494-4.482 3.735-4.482 6.723 0 2.242.845 4.03 2.536 5.368 1.533 1.219 3.46 1.828 5.78 1.828 4.286 0 7.412-1.69 9.378-5.072m23.18 18.107h-22v-5.014c-4.05 4.13-9.26 6.233-15.63 6.312-4.522.039-8.63-.964-12.327-3.009-3.893-2.162-6.724-5.23-8.494-9.2-1.258-2.832-1.887-6.036-1.887-9.615 0-8.178 3.99-14.214 11.973-18.107 4.6-2.241 11.05-3.362 19.346-3.362 1.18 0 3.224.079 6.134.236 0-6.724-2.93-10.086-8.788-10.086-4.994 0-10.243 1.455-15.748 4.365l-5.84-14.097c1.298 0 3.834-.471 7.61-1.415l8.02-2.005c2.714-.55 5.663-.826 8.848-.826 12.582 0 20.486 4.01 23.71 12.032 1.573 3.932 2.36 8.788 2.36 14.568v28.842c0 2.831.078 4.68.235 5.544.315 1.77 1.14 3.382 2.478 4.837m45.127-18.107V65.406c-2.596-2.202-5.486-3.303-8.67-3.303-6.92 0-10.38 6.724-10.38 20.172 0 10.852 3.164 16.278 9.494 16.278 3.303 0 6.488-1.238 9.555-3.715m-2.654-75.083h23.18v82.81c0 4.914.904 8.375 2.713 10.38h-22.06v-5.014c-4.285 4.208-9.75 6.312-16.396 6.312-5.623 0-10.499-1.691-14.627-5.073-3.893-3.185-6.744-7.53-8.553-13.035-1.258-3.853-1.887-8.14-1.887-12.858 0-15.65 3.991-26.345 11.973-32.085 3.775-2.714 8.12-4.07 13.035-4.07 6.488 0 11.58 1.75 15.276 5.25V30.017c0-2.83-.079-4.66-.236-5.485-.314-1.73-1.12-3.322-2.418-4.777" style="fill:#1b2b63;"/><path d="M86.962 16.602h28.315v27.03H86.962Z" style="fill:#314cb0;"/><path d="M112.841 11.955c0 6.603-5.369 11.955-11.99 11.955-6.623 0-11.99-5.352-11.99-11.955C88.861 5.353 94.228 0 100.851 0c6.621 0 11.99 5.353 11.99 11.955z" style="fill:#f70;"/></svg>