<svg xmlns="http://www.w3.org/2000/svg" width="121.093" height="126.082" viewbox="0 0 121.093 126.082"><title>KiCad logo</title><path fill="#314cb0" stroke="#1d2d68" stroke-width="4.85" d="M3.35 11.925h114.392c.513 0 .926.432.926.969v109.795c0 .537-.413.968-.926.968H3.35c-.512 0-.925-.431-.925-.968V12.894c0-.537.413-.969.925-.969z"/><path fill="#fff" d="m31.942 58.209 16.927-21.41c3.46-4.364 5.19-7.628 5.19-9.79 0-.787-.098-1.416-.294-1.888h29.55c-2.242 1.258-5.054 3.912-8.435 7.962-.905 1.062-2.497 3.008-4.778 5.84L47.925 66.526l26.483 36.45c1.612 2.202 3.657 4.68 6.134 7.432.668.708 1.632 1.553 2.89 2.536H53.116c.236-.904.354-1.71.354-2.418 0-2.163-1.495-5.289-4.483-9.378L31.941 77.909v23.534c0 5.465 1.101 9.299 3.303 11.5H7.524c1.533-1.533 2.516-3.282 2.948-5.248.236-1.101.354-3.166.354-6.193V36.563c0-3.027-.118-5.092-.354-6.193-.432-1.966-1.415-3.716-2.949-5.25h27.721c-2.202 2.203-3.303 6.017-3.303 11.443v21.646m79.212-9.79v54.144c0 2.831.079 4.68.236 5.544.315 1.77 1.14 3.382 2.477 4.837H87.915c1.337-1.455 2.162-3.067 2.477-4.837.157-.865.236-2.713.236-5.544V58.681c0-2.83-.079-4.66-.236-5.485-.315-1.73-1.12-3.323-2.418-4.778h23.18m-10.263-30.847c3.263 0 6.035 1.16 8.316 3.48 2.32 2.28 3.48 5.053 3.48 8.317 0 3.342-1.14 6.153-3.421 8.434-2.241 2.241-5.033 3.362-8.375 3.362-3.264 0-6.056-1.14-8.376-3.421-2.28-2.32-3.42-5.112-3.42-8.375 0-3.343 1.12-6.134 3.361-8.376 2.28-2.28 5.092-3.42 8.435-3.42" style="line-height:122%"/><path fill="#314cb0" d="M86.962 16.601h28.315v27.032H86.962Z"/><path fill="#f70" d="M112.84 11.954c0 6.603-5.368 11.955-11.99 11.955s-11.99-5.352-11.99-11.955C88.86 5.352 94.228 0 100.85 0s11.99 5.352 11.99 11.954z"/></svg>