<svg xmlns="http://www.w3.org/2000/svg" xmlns:xlink="http://www.w3.org/1999/xlink" viewBox="0 0 34.6 35"><defs><linearGradient id="a"><stop offset="0" stop-color="#ffd43b"/><stop offset="1" stop-color="#ffe873"/></linearGradient><linearGradient id="b"><stop offset="0" stop-color="#5a9fd4"/><stop offset="1" stop-color="#306998"/></linearGradient><linearGradient xlink:href="#a" id="d" x1="150.961" x2="112.031" y1="192.352" y2="137.273" gradientTransform="matrix(.17523 0 0 .17692 -4.68 -3.645)" gradientUnits="userSpaceOnUse"/><linearGradient xlink:href="#b" id="c" x1="26.649" x2="135.665" y1="20.604" y2="114.398" gradientTransform="matrix(.17523 0 0 .17692 -4.68 -3.645)" gradientUnits="userSpaceOnUse"/></defs><path fill="url(#c)" d="M17.097 0c-2.317.095-4.823.12-6.866 1.354C8.481 2.637 9.023 4.97 8.93 6.849c-.087.688-.065 1.268.787 1.017h7.565c.072.688.085 1.317-.788 1.06-3.79.025-7.584-.048-11.373.04C2.642 9.161.75 11.351.443 13.743c-.786 3.234-.537 6.762.835 9.8.78 1.669 2.637 2.547 4.428 2.34h2.182c.076-1.772-.195-3.584.239-5.318.736-2.419 3.287-3.963 5.766-3.686 2.731-.03 5.468.061 8.195-.05 2.249-.296 3.798-2.588 3.536-4.785-.03-2.66.061-5.327-.049-7.983C25.191 1.625 22.65.26 20.364.186A26.582 26.582 0 0 0 17.097 0ZM12.58 2.56c2.68.008 1.37 4.427-.876 2.913-1.272-.822-.65-2.943.876-2.912z"/><path fill="url(#d)" d="M26.666 8.927c-.088 1.836.24 3.732-.328 5.51-.813 2.304-3.272 3.757-5.678 3.494-2.728.03-5.462-.063-8.186.05-2.276.325-3.823 2.659-3.544 4.884.03 2.624-.063 5.255.05 7.876.522 2.577 3.333 3.55 5.606 3.999 3.113.592 6.537.204 9.273-1.453 1.422-.831 1.913-2.498 1.765-4.045v-2.297h-8.342c-.072-.688-.085-1.317.788-1.06 4.055-.014 8.113.025 12.168-.02 2.411-.164 3.298-2.747 3.89-4.705.932-3.242.438-6.78-.804-9.868-.651-1.641-2.397-2.57-4.115-2.365h-2.543zm-4.692 20.14c2.683-.002 1.367 4.43-.875 2.91-1.273-.803-.646-2.96.875-2.91z"/></svg>