<svg xmlns="http://www.w3.org/2000/svg" width="37.411" height="22.83" viewbox="0 0 37.411 22.83"><title>Quectel logo</title><path fill="#ed000c" d="M14.559 14.012c-2.849-.038-6.298.937-10.848 3.687 12.2-3.1 14.3 9.6 33.7 3.4-11.176 2.25-14.307-6.975-22.852-7.087z"/><path d="M12.111 0c-1.7 0-3.4.4-4.9 1.3-1.5.8-2.6 2-3.4 3.5l-3 5.7c-1.4 2.6-1 5 1.3 6l.6-.4c3-1.8 5.7-3 8.3-3.6l4.3-8.2.1-.3c.7-1.4 1.7-2.2 3.4-2.2h3.3c1.5 0 1.8.9 1.2 2l-4.6 9c2.1.7 3.9 1.8 5.6 2.9.5-.4.9-.9 1.2-1.5l4.3-8.1c1.8-3.2-.1-6.1-4.3-6.1Z"/></svg>