<svg xmlns="http://www.w3.org/2000/svg" viewBox="0 0 205 23"><title>Quectel primary logo</title><path fill="#ED000C" d="M37.7 21.1C18.3 27.3 16.2 14.6 4 17.7c18.2-11 18.8 6.4 33.7 3.4z"/><path d="M144.9 2.5h-6.7l-7.5 14.2h-11.6l7.5-14.2h-7.1l1.1-2.1h26.3l-.8 1.5c-.1.2-.3.3-.5.5-.2.1-.4.1-.7.1zm38.2 12.2c-1 0-1.4-.3-1-1.2L189 .4h-12.1l-5.3 10c-1.7 3.3.6 6.3 3.9 6.3H195c.2 0 .4-.1.6-.2.2-.1.3-.3.4-.5l.7-1.4-13.6.1zM56.7.4 50 13c-.3.5-.7.9-1.2 1.2-.5.3-1.1.5-1.7.5h-4.9c-1 0-1.3-.4-.9-1.2L48.2.4h-11l-5.3 10c-1.8 3.4-.7 6.3 3.9 6.3h15c2 0 3.9-1.2 4.9-3.1l7-13.2h-6zM11.3 12.5l4.3-8.2.1-.3c.7-1.4 1.7-2.2 3.4-2.2h3.3c1.5 0 1.8.9 1.2 2l-4.6 9c2.1.7 3.9 1.8 5.6 2.9.5-.4.9-.9 1.2-1.5l4.3-8.1C31.9 2.9 30 0 25.8 0H12.4C10.7 0 9 .4 7.5 1.3c-1.5.8-2.6 2-3.4 3.5l-3 5.7c-1.4 2.6-1 5 1.3 6l.6-.4c3-1.8 5.7-3 8.3-3.6zM159.4 4c.6-1.1 1.3-1.5 2.9-1.5h8.4c.2 0 .4-.1.6-.2.2-.1.3-.3.4-.4l.7-1.5h-17.9c-1.7 0-3.3.4-4.7 1.3-1.4.8-2.6 2-3.3 3.4l-2.8 5.4c-2 3.8-.1 6.3 3.9 6.3h16.5c.2 0 .4-.1.6-.2.2-.1.3-.3.4-.5l.7-1.4h-10.9c-.7 0-1.1-.4-.7-1.2l2.7-5.1h10.4c.2 0 .4-.1.6-.2.2-.1.3-.3.4-.5l.7-1.4h-11.1l1.5-2.3zM77 4c.6-1.1 1.3-1.5 2.9-1.5h8.3c.2 0 .4-.1.6-.2.2-.1.3-.3.4-.4l.7-1.5H72.2c-1.7 0-3.3.5-4.7 1.3-1.4.8-2.5 2-3.3 3.4l-2.8 5.4c-2 3.8-.1 6.3 3.9 6.3h16.5c.2 0 .4-.1.6-.2.2-.1.3-.3.5-.5l.7-1.4H72.9c-.9 0-1.3-.4-.9-1.2l2.7-5.1h10.4c.2 0 .4-.1.6-.2.3-.1.4-.2.5-.4l.8-1.4H75.8L77 4zm14.7 1.1-2.8 5.4c-1.8 3.4-.1 6.3 3.9 6.3h16.6c.2 0 .4-.1.6-.2.2-.1.3-.3.4-.5l.7-1.4h-10.8c-1 0-1.4-.4-.9-1.2l5-9.4c.2-.5.6-.9 1.1-1.2.5-.3 1.1-.4 1.6-.4h8.3c.2 0 .4-.1.6-.2.2-.1.3-.3.4-.5l.8-1.5H99.7C98 .3 96.4.7 95 1.5c-1.5 1-2.6 2.2-3.3 3.6z"/><path d="M200.9 1.3h-.7v-.2h1.7v.3h-.7v2.1h-.3V1.3zM204.2 2.4v-1l-.3.9-.4 1.1h-.2l-.4-1.1-.3-.9v1l-.1 1h-.3l.2-2.3h.4l.4 1.1c.1.3.2.5.2.8.1-.2.1-.5.2-.8l.4-1.1h.4l.1 2.3h-.3v-1z"/></svg>