<svg viewBox="0 0 34 43.59"><path d="M9.699 0h.828c.708.079 1.376.29 2.005.632a2.953 2.953 0 0 1 1.547.25A7.696 7.696 0 0 1 17 3.292 7.73 7.73 0 0 1 19.724.97 3.274 3.274 0 0 1 21.36.62a.315.315 0 0 1 .12.055A4.684 4.684 0 0 1 24.715.12a14.358 14.358 0 0 1 .49.163 5.254 5.254 0 0 1 2.453-.01c.469.129.883.354 1.242.675a7.182 7.182 0 0 1 2.506.545 3.561 3.561 0 0 1 1.624 1.384c.435.811.413 1.61-.065 2.397a17.736 17.736 0 0 1-.36.49c.253.598.3 1.212.142 1.842A4.612 4.612 0 0 1 31.46 9.83c-.084.48-.258.923-.523 1.33a5.25 5.25 0 0 1-2.278 1.929 4.408 4.408 0 0 1-.523.643 7.629 7.629 0 0 1 1.82 2.44c.28.649.454 1.324.523 2.028a6.2 6.2 0 0 1 1.09 2.136 5.421 5.421 0 0 1 1.504 1.765A8.544 8.544 0 0 1 34 25.435v.893a6.996 6.996 0 0 1-.926 3.117 12.602 12.602 0 0 1-.523.72 7.65 7.65 0 0 1-1.22 2.767 7.318 7.318 0 0 1-1.853 4.272 7.612 7.612 0 0 1-4.065 2.386 9.999 9.999 0 0 1-3.27 2.027 6.943 6.943 0 0 1-3.64 1.853 18.063 18.063 0 0 1-.871.12h-1.199a7.465 7.465 0 0 1-3.857-1.406 6.034 6.034 0 0 1-.654-.567 10.282 10.282 0 0 1-3.226-2.005c-2.113-.505-3.751-1.672-4.915-3.498a7.117 7.117 0 0 1-1.046-3.182 7.077 7.077 0 0 1-1.22-2.79A5.58 5.58 0 0 1 .12 27.265 13.801 13.801 0 0 1 0 26.35v-.915a8.186 8.186 0 0 1 1.144-3.727 5.96 5.96 0 0 1 1.286-1.417 5.733 5.733 0 0 1 1.09-2.136c.213-1.796 1.001-3.282 2.365-4.457a2.568 2.568 0 0 1-.545-.643 5.28 5.28 0 0 1-2.518-2.354 3.205 3.205 0 0 1-.283-.893 4.4 4.4 0 0 1-1.286-2.18 3.023 3.023 0 0 1 .142-1.896 3.323 3.323 0 0 1-.578-.915c-.32-1.05-.077-1.947.73-2.692a5.12 5.12 0 0 1 2.463-1.09 11.834 11.834 0 0 1 1.112-.13A3.188 3.188 0 0 1 6.974.12a5.286 5.286 0 0 1 1.82.142A3.38 3.38 0 0 1 9.7 0Z" opacity=".992"/><path fill="#6bbf49" d="M9.764 2.267a2.623 2.623 0 0 1 1.896.555 6.94 6.94 0 0 1 .654.654c.157.058.255.003.294-.163a2.031 2.031 0 0 1 .044-.37.126.126 0 0 1 .12-.066c.446.132.853.34 1.22.621a5.694 5.694 0 0 1 1.886 2.67 3 3 0 0 1 0 1.94c-.227.531-.6.92-1.123 1.166a.354.354 0 0 1-.174 0c-1.932-2.645-4.525-4.225-7.781-4.74-.09.01-.133.061-.13.152a.186.186 0 0 0 .065.142c2.93 1.143 5.33 2.977 7.203 5.503a1.992 1.992 0 0 1-.392.959 3.735 3.735 0 0 1-1.951 1.253 5.556 5.556 0 0 1-3.357-.065 3.022 3.022 0 0 1-.904-.556.225.225 0 0 1 .022-.175.328.328 0 0 0 .207-.228.233.233 0 0 0-.11-.175 5.645 5.645 0 0 1-1.808-.784 2.571 2.571 0 0 1-.807-1.068.122.122 0 0 1 .066-.131c.095-.026.19-.056.283-.087a.184.184 0 0 0 .077-.207 11.103 11.103 0 0 1-1.112-.916 3.208 3.208 0 0 1-.567-.828.995.995 0 0 1-.065-.654.266.266 0 0 1 .12-.065c.193.068.39.079.588.032a.19.19 0 0 0 .153-.185 3.356 3.356 0 0 0-.861-1.896 7.786 7.786 0 0 0-.501-.48c-.05-.091-.039-.175.032-.25a3.954 3.954 0 0 1 1.635-.589 6.184 6.184 0 0 1 1.177-.043 7.565 7.565 0 0 1 .959.174c.122-.084.14-.19.054-.316a1.113 1.113 0 0 0-.24-.283.263.263 0 0 1 .055-.25 1.392 1.392 0 0 1 .523-.175 3.57 3.57 0 0 1 1.918.392 7.073 7.073 0 0 1 .458.262c.142.038.229-.013.261-.153a1.562 1.562 0 0 0-.174-.425.187.187 0 0 1 .087-.152Zm13.753 0c.218-.004.436 0 .654.01.078.048.104.117.076.208a.742.742 0 0 0-.164.36c.017.1.076.162.175.184a6.611 6.611 0 0 1 1.22-.555 3.07 3.07 0 0 1 1.373-.11c.179.034.335.11.469.23a.271.271 0 0 1 0 .152 1.243 1.243 0 0 0-.305.37c-.04.16.021.247.185.262a4.754 4.754 0 0 1 3.16.142c.206.082.39.195.556.338a.208.208 0 0 1 0 .218 4.37 4.37 0 0 0-.915 1.024 3.501 3.501 0 0 0-.436 1.417c.03.075.085.122.163.141.194.024.382.005.567-.054.118.042.17.126.152.25-.011.246-.08.475-.207.687a4.232 4.232 0 0 1-.817.948 42.7 42.7 0 0 1-.73.556c-.061.12-.029.204.098.25.316-.002.393.132.229.404a3.17 3.17 0 0 1-1.755 1.427 26.12 26.12 0 0 1-.806.262c-.104.086-.115.184-.033.294.174.077.207.193.098.349a3.72 3.72 0 0 1-2.027.752 5.529 5.529 0 0 1-3.05-.567 3.092 3.092 0 0 1-1.32-1.34 1.32 1.32 0 0 1-.13-.523 16.528 16.528 0 0 1 6.222-5.09 13.756 13.756 0 0 1 .96-.392c.129-.138.104-.236-.077-.294-2.828.436-5.189 1.715-7.083 3.836a59.688 59.688 0 0 1-.73.883.142.142 0 0 1-.11 0c-.842-.428-1.278-1.119-1.307-2.071a4.743 4.743 0 0 1 .926-2.54 5.15 5.15 0 0 1 1.95-1.666 3.097 3.097 0 0 1 .404-.142c.074.004.125.04.153.109a.63.63 0 0 0 .065.436.224.224 0 0 0 .25.032 7.747 7.747 0 0 1 .48-.5c.405-.37.877-.6 1.417-.687z"/><path fill="#c41949" d="M16.477 13.818c1.635-.122 3.048.372 4.239 1.482.803.872.712 1.639-.272 2.3a5.589 5.589 0 0 1-1.81.631 9.3 9.3 0 0 1-4.031-.174 4.755 4.755 0 0 1-1.286-.61c-.615-.466-.735-1.036-.36-1.711a4.03 4.03 0 0 1 .84-.883 5.393 5.393 0 0 1 2.68-1.035zm-6.342.24a6.605 6.605 0 0 1 .871.032.94.94 0 0 1 .6.316.758.758 0 0 1 .065.589 2.84 2.84 0 0 1-.458.828 12.864 12.864 0 0 1-3.78 3.193 3.177 3.177 0 0 1-.655.262c-.563.14-.887-.074-.97-.643a3.907 3.907 0 0 1 .894-2.572 5.48 5.48 0 0 1 2.844-1.907 20.263 20.263 0 0 1 .589-.098zm12.924 0c.72-.05 1.41.07 2.07.36a5.304 5.304 0 0 1 2.736 2.713c.205.48.307.982.305 1.504-.012.348-.183.57-.512.664a1.74 1.74 0 0 1-.916-.174 11.297 11.297 0 0 1-4.239-3.607 1.893 1.893 0 0 1-.261-.61c-.054-.317.058-.553.337-.709.157-.068.317-.115.48-.141zM12.053 19.31c1.552.044 2.645.77 3.28 2.18.457 1.261.406 2.504-.153 3.727-.628 1.362-1.649 2.288-3.062 2.778-1.471.406-2.724.053-3.76-1.057-.682-.884-.973-1.887-.871-3.007.194-1.664.975-2.968 2.342-3.912a4.512 4.512 0 0 1 2.224-.709zm9.676.022a4.427 4.427 0 0 1 2.856 1.014c1.674 1.463 2.244 3.276 1.71 5.437-.57 1.526-1.67 2.325-3.301 2.398a4.548 4.548 0 0 1-2.856-1.144c-1.445-1.344-1.994-2.99-1.645-4.937.455-1.658 1.534-2.58 3.236-2.768zM4.163 21.904a.682.682 0 0 1 .686.283c.188.294.311.613.37.96a8.282 8.282 0 0 1-.413 4.685 3.153 3.153 0 0 1-.458.806c-.399.376-.784.354-1.155-.065a4.176 4.176 0 0 1-.872-2.332c-.117-1.465.283-2.765 1.199-3.9.183-.196.398-.341.643-.437zm25.347 0c.11-.004.218 0 .327.01.256.09.47.239.643.448 1.24 1.604 1.53 3.37.872 5.296-.138.333-.32.638-.545.915-.487.482-.93.439-1.33-.13a5.639 5.639 0 0 1-.631-1.548 7.955 7.955 0 0 1 .043-4.272c.078-.208.19-.393.338-.556.09-.066.184-.12.283-.163zM16.913 28.18c1.421-.01 2.616.499 3.585 1.525.83 1 1.04 2.119.632 3.357a3.98 3.98 0 0 1-2.06 2.125 5.034 5.034 0 0 1-3.508.24c-1.219-.362-2.101-1.114-2.649-2.256-.52-1.52-.182-2.818 1.014-3.89a4.87 4.87 0 0 1 2.986-1.101zm10.396 2.048c.562-.044.987.174 1.275.654.378.818.473 1.668.283 2.55-.468 1.733-1.518 2.971-3.15 3.716a4.12 4.12 0 0 1-2.55.196c-.431-.17-.69-.487-.773-.948a3.007 3.007 0 0 1 .218-1.438 9.969 9.969 0 0 1 2.757-3.738 5.348 5.348 0 0 1 1.352-.828c.194-.072.39-.127.588-.164zm-21.054.022c.33-.026.65.021.96.142a5.77 5.77 0 0 1 1.547.98 10.43 10.43 0 0 1 2.43 3.194c.239.488.373 1.004.403 1.547-.037.818-.465 1.265-1.286 1.34a4.491 4.491 0 0 1-3.204-.98 5.614 5.614 0 0 1-2.038-3.237 3.924 3.924 0 0 1 .262-2.245c.191-.399.5-.646.926-.74zm10.68 7.345a7.811 7.811 0 0 1 2.637.425c.394.148.74.37 1.035.665.316.439.302.868-.044 1.286-1.172 1.078-2.556 1.54-4.151 1.384a5.263 5.263 0 0 1-2.768-1.177c-.647-.594-.64-1.175.021-1.744a3.833 3.833 0 0 1 1.156-.544 8.33 8.33 0 0 1 2.114-.295z"/></svg>