<svg role="img" viewBox="0 0 24 24" xmlns="http://www.w3.org/2000/svg" xml:space="preserve" width="24" height="24"><title>Septentrio logo</title>
<path d="M18.4421 6.8801c-.1635-.3666-.3081-.8513-.3636-1.4081.187.3819.2847.836.3636 1.4081zm-4.3039 2.459c.548.021 1.163.021 1.753.1417.5871.1201 1.1494.3617 1.9342.6196 0-.522.0056-.8922-.0014-1.2621-.008-.4072-.261-.9382.5696-.9324-.074.8432-.219 1.687-.3754 2.5989-1.3832-.4102-2.6035-.7721-3.8798-1.1658Zm.2857.0703c-.9773-.2645-1.968-.4885-2.9272-.8076-.6592-.2192-1.3337-.5276-1.305-1.4119.027-.8366.6931-1.118 1.3187-1.3248 2.0514-.6783 4.121-1.3014 6.306-1.9839.1707.6873.335 1.3488.4484 2.1136.0225.3494.096.5955.1694.8416.0069.383.0142.7658-.055 1.2201-.7714.0657-.54.5514-.5327.9238.0066.3384.0014.677.0014 1.1546-.718-.236-1.2322-.457-1.7692-.5668-.5399-.1105-1.1023-.1104-1.6548-.1587Zm-.3954 10.5734a4559.334 4559.334 0 0 0-2.1256 4.0048c-.7673-1.4298-1.484-2.7651-2.2248-4.1458l4.6102-.5523c-.0843.235-.1568.437-.2598.6933zM9.039 3.3763A4823.7659 4823.7659 0 0 1 5.6604 5.078c.5093-1.9592 1.483-3.4693 3.2847-4.3156 2.3975-1.1261 4.7028-.882 6.8358.5348-2.2289.6834-4.4579 1.3668-6.742 2.0791zm4.3765 9.7789c.595.1974 1.1457.3368 1.6552.5673.9211.4166 1.032 1.2658.1616 1.7702-.6986.4049-1.5195.676-2.3193.8127-1.5274.261-3.0783.3837-4.7186.5754l-2.283-5.7561 7.5041 2.0305z" style="fill:#fe9414;fill-opacity:1;stroke-width:.3178"/></svg>